# xmcd CD database file
#
# Track frame offsets:
#	150
#	14145
#	28495
#	43132
#	56675
#	71402
#	85157
#	99657
#	113960
#	125692
#	139642
#	151755
#	165000
#	177645
#	189430
#	202622
#	216897
#	231637
#	245367
#	260110
#
# Disc length: 3738 seconds
#
# Revision: 0
# Processed by: cddbd v1.4PL0 Copyright (c) Steve Scherf et al.
# Submitted via: CDex 1.51
#
DISCID=230e9814
DTITLE=Ella Fitzgerald - The Fabulous Ella Fitzgerald [CD1]
DYEAR=1996
DGENRE=Jazz
TTITLE0='T Ain't What You Do (It's The Way That You Do It)
TTITLE1=My Heart Belongs to Daddy
TTITLE2=Don't Worry 'Bout Me
TTITLE3=Little While Lies
TTITLE4=I Want The Waiter (With The Water)
TTITLE5=Imagination
TTITLE6=Five O'clock Whistle
TTITLE7=Taking A Chance On Love
TTITLE8=Three Little Words
TTITLE9=My Man (Mon Homme)
TTITLE10=When My Sugar Walks Down The Street
TTITLE11=I Got It Bad (And That Ain't Good)
TTITLE12=Can't Help Lovin' Dat Man
TTITLE13=Sing Me A Song (And Let Me Dance)
TTITLE14=Organ Grinder's Swing
TTITLE15=Darktown Strutter's Ball
TTITLE16=If You Should Ever Leave
TTITLE17=Just A Simple Melody
TTITLE18=Rock It For Me
TTITLE19=I Want To Be Happy
EXTD=YEAR: 1996
EXTT0=
EXTT1=
EXTT2=
EXTT3=
EXTT4=
EXTT5=
EXTT6=
EXTT7=
EXTT8=
EXTT9=
EXTT10=
EXTT11=
EXTT12=
EXTT13=
EXTT14=
EXTT15=
EXTT16=
EXTT17=
EXTT18=
EXTT19=
PLAYORDER=
